<svg width="80" height="80" xmlns="http://www.w3.org/2000/svg"><defs><linearGradient x1="50%" y1="-13.2332855%" x2="50%" y2="98.4058277%" id="a"><stop stop-color="#FFF" offset="0%"/><stop stop-color="#FFF" stop-opacity=".0846536" offset="100%"/></linearGradient></defs><path d="M66.36911 69.0164553V12.3035705L58.3088866 7 28.9142432 19.9407051V29.935l-16.2639333 5.5864295v33.495H11V73h5.3096916V37.855l21.549715-6.9771152V73h14.9006159v-4.3135705h-3.3245364V30.2178396l-7.8210576-4.6435705-8.7537849 2.9935705v-6.317141l21.2387405-9.2871152v60.0128848H69v-3.9835705l-2.6309292.0235714.0000392-.0000138zM19 47l16-5.1463327V35l-16 5.4877956V47zm0 8l16-3.3254095V45l-16 3.9904914V55zm0 10l16-2.0901587V56l-16 2.4344203V65zm0 8l16-.3322025V66l-16 .664405V73z" fill="url(#a)" fill-rule="nonzero" fill-opacity=".8" opacity=".9"/></svg>