<svg width="18" height="18" xmlns="http://www.w3.org/2000/svg"><defs><linearGradient x1="7.1984254%" y1="69.1548076%" x2="100%" y2="27.7777778%" id="a"><stop stop-color="#43D8BD" stop-opacity=".3" offset="0%"/><stop stop-color="#21BB9F" offset="100%"/></linearGradient></defs><path d="M315.354976 11h-4.646415c-.368439 0-.655002.2912134-.655002.6426778 0 .3615063.296798.6426778.655002.6426778h3.101021l-6.00759 6.888703-3.561569-3.2133891-6.048528 5.934728c-.25586.251046-.25586.6627615 0 .9138075.133047.130544.296797.190795.470782.190795s.337735-.060251.470782-.190795l5.147901-5.051046 3.633211 3.283682 6.775169-7.7723849v2.7414226c0 .3615062.296798.6426778.655002.6426778.358204 0 .655001-.2912134.655001-.6426778v-4.3682009C316.009977 11.2912134 315.71318 11 315.354976 11z" transform="translate(-298 -8)" fill="url(#a)" fill-rule="nonzero"/></svg>