<svg width="80" height="80" xmlns="http://www.w3.org/2000/svg"><defs><linearGradient x1="50%" y1="-29.3578181%" x2="57.5712316%" y2="89.3532986%" id="a"><stop stop-color="#FFF" offset="0%"/><stop stop-color="#FFF" stop-opacity="0" offset="100%"/></linearGradient></defs><path d="M57.0580858 10C59.2350405 10 61 11.7653536 61 13.9429555c0 2.1777575-1.7647973 3.9429237-3.941752 3.9429237h-1.3599058v14.9317041l-.7943434.8523011c-.1619229.1735219-4.0068585 4.3120049-7.9050937 9.5718648-5.6506029 7.6239944-8.39722 13.4775273-8.39722 17.895657 0 5.9861143 2.7548365 11.3404572 7.0620697 14.8625938H10.9418039C8.7648557 76 7 74.234678 7 72.0570762c0-2.1775953 1.7648492-3.9429238 3.9418039-3.9429238h1.3599058V51.3705922h6.9955101c1.2189433 0 2.2073801-.9885684 2.2073801-2.2080363 0-1.2194679-.9884303-2.2080363-2.2073801-2.2080363l-8.3554418-.0113556C8.7648298 46.943164 7 45.1778421 7 43.0002402c0-2.1779133 1.7648233-3.9429238 3.941778-3.9429238h1.3599057v-16.746091h6.9955101c1.2189433 0 2.2073801-.9885683 2.2073801-2.2080363 0-1.2194679-.9884303-2.2080362-2.2073801-2.2080362l-8.3554418-.0093053C8.7648038 17.8858476 7 16.1206813 7 13.9429238 7 11.7653285 8.7647973 10 10.941752 10zm.2881459 27.2588992c.3867358-.3628711.9927338-.3417196 1.3535292.0472434.1719565.1864491 3.6550007 3.9736778 7.0900246 8.6335023C70.5736792 52.4296013 72.99936 57.4670269 73 60.9132844 73 69.232054 66.2706971 76 57.9998354 76 49.7289738 76 43 69.2319216 43 60.9132844c0-3.4459728 2.4253795-8.4837096 7.2092339-14.9736395 3.5018969-4.7511936 7.0543482-8.595207 7.0900247-8.6335023a.9604619.9604619 0 01.0469731-.0472434zm-8.5877299 18.7519866c-.2681459-.1338468-.5934043-.0237267-.7264856.245961l-.1411318.2906628c-1.0459398 2.1922329-1.2708896 3.5556584-1.2708896 4.3229594 0 5.805588 4.6963267 10.5287844 10.4685652 10.5287844.8110906.0002082 1.6194627-.0942852 2.4088837-.2815836l.0892944-.0295301c.1992997-.0859129.3316911-.2860947.3275494-.510275l-.0097211-.0940664c-.0410357-.2141842-.2070928-.3870661-.4256946-.4311258l-.3068373-.0658432c-5.9039716-1.3419984-10.1565936-6.6694072-10.1565936-12.7867597a5.4700986 5.4700986 0 01.0403158-.6363752l.0028505-.0973341c-.0114974-.192437-.1240899-.3676151-.3001054-.4554745z" fill="url(#a)" fill-rule="nonzero" fill-opacity=".9"/></svg>