<?xml version="1.0" encoding="UTF-8"?>
<svg width="20px" height="20px" viewBox="0 0 20 20" version="1.1" xmlns="http://www.w3.org/2000/svg" xmlns:xlink="http://www.w3.org/1999/xlink">
    <title>编组 2</title>
    <g id="大气" stroke="none" stroke-width="1" fill="none" fill-rule="evenodd">
        <g id="Apple-TV" transform="translate(-1218.000000, -658.000000)">
            <g id="编组-2" transform="translate(1218.000000, 658.000000)">
                <circle id="椭圆形" fill="#FFFFFF" cx="10" cy="10" r="10"></circle>
                <g id="jia" transform="translate(5.714286, 5.714286)" fill="#0091DA" fill-rule="nonzero">
                    <path d="M7.69996676,3.41945289 C7.81546828,3.41945289 7.92641052,3.44224924 8.0327935,3.48784195 C8.13917648,3.53343465 8.23036189,3.59422492 8.30634973,3.67021277 C8.38233758,3.74620061 8.44312785,3.83738602 8.48872055,3.943769 C8.53431326,4.05015198 8.55710961,4.16109422 8.55710961,4.27659574 C8.55710961,4.39817629 8.53431326,4.5106383 8.48872055,4.61398176 C8.44312785,4.71732523 8.38233758,4.80699088 8.30634973,4.88297872 C8.23036189,4.95896657 8.13917648,5.01975684 8.0327935,5.06534954 C7.92641052,5.11094225 7.81546828,5.1337386 7.69996676,5.1337386 L5.13765672,5.1337386 L5.13765672,7.69604863 C5.13765672,7.81762918 5.11486037,7.93009119 5.06926767,8.03343465 C5.02367496,8.13677812 4.96288469,8.22644377 4.88689685,8.30243161 C4.810909,8.37841945 4.71972359,8.43920973 4.61334062,8.48480243 C4.50695764,8.53039514 4.39601539,8.55319149 4.28051387,8.55319149 C4.15893332,8.55319149 4.04647131,8.53039514 3.94312785,8.48480243 C3.83978438,8.43920973 3.75011873,8.37841945 3.67413089,8.30243161 C3.59814305,8.22644377 3.53735277,8.13677812 3.49176007,8.03343465 C3.44616736,7.93009119 3.42337101,7.81762918 3.42337101,7.69604863 L3.42337101,5.1337386 L0.86106098,5.1337386 C0.739480433,5.1337386 0.627018427,5.11094225 0.523674962,5.06534954 C0.420331497,5.01975684 0.330665843,4.95896657 0.254678002,4.88297872 C0.17869016,4.80699088 0.117899886,4.71732523 0.0723071809,4.61398176 C0.0267144757,4.5106383 0.0039181231,4.39817629 0.0039181231,4.27659574 C0.0039181231,4.16109422 0.0267144757,4.05015198 0.0723071809,3.943769 C0.117899886,3.83738602 0.17869016,3.74620061 0.254678002,3.67021277 C0.330665843,3.59422492 0.420331497,3.53343465 0.523674962,3.48784195 C0.627018427,3.44224924 0.739480433,3.41945289 0.86106098,3.41945289 L3.42337101,3.41945289 L3.42337101,0.857142857 C3.42337101,0.741641337 3.44616736,0.630699088 3.49176007,0.524316109 C3.53735277,0.417933131 3.59814305,0.32674772 3.67413089,0.250759878 C3.75011873,0.174772036 3.83978438,0.113981763 3.94312785,0.0683890578 C4.04647131,0.0227963526 4.15893332,0 4.28051387,0 C4.51759593,0 4.71972359,0.0835866261 4.88689685,0.250759878 C5.0540701,0.417933131 5.13765672,0.62006079 5.13765672,0.857142857 L5.13765672,3.41945289 L7.69996676,3.41945289 Z" id="路径"></path>
                </g>
                <g id="jia备份" transform="translate(5.714286, 5.714286)" fill="#0091DA" fill-rule="nonzero">
                    <path d="M7.69996676,3.41945289 C7.81546828,3.41945289 7.92641052,3.44224924 8.0327935,3.48784195 C8.13917648,3.53343465 8.23036189,3.59422492 8.30634973,3.67021277 C8.38233758,3.74620061 8.44312785,3.83738602 8.48872055,3.943769 C8.53431326,4.05015198 8.55710961,4.16109422 8.55710961,4.27659574 C8.55710961,4.39817629 8.53431326,4.5106383 8.48872055,4.61398176 C8.44312785,4.71732523 8.38233758,4.80699088 8.30634973,4.88297872 C8.23036189,4.95896657 8.13917648,5.01975684 8.0327935,5.06534954 C7.92641052,5.11094225 7.81546828,5.1337386 7.69996676,5.1337386 L5.13765672,5.1337386 L5.13765672,7.69604863 C5.13765672,7.81762918 5.11486037,7.93009119 5.06926767,8.03343465 C5.02367496,8.13677812 4.96288469,8.22644377 4.88689685,8.30243161 C4.810909,8.37841945 4.71972359,8.43920973 4.61334062,8.48480243 C4.50695764,8.53039514 4.39601539,8.55319149 4.28051387,8.55319149 C4.15893332,8.55319149 4.04647131,8.53039514 3.94312785,8.48480243 C3.83978438,8.43920973 3.75011873,8.37841945 3.67413089,8.30243161 C3.59814305,8.22644377 3.53735277,8.13677812 3.49176007,8.03343465 C3.44616736,7.93009119 3.42337101,7.81762918 3.42337101,7.69604863 L3.42337101,5.1337386 L0.86106098,5.1337386 C0.739480433,5.1337386 0.627018427,5.11094225 0.523674962,5.06534954 C0.420331497,5.01975684 0.330665843,4.95896657 0.254678002,4.88297872 C0.17869016,4.80699088 0.117899886,4.71732523 0.0723071809,4.61398176 C0.0267144757,4.5106383 0.0039181231,4.39817629 0.0039181231,4.27659574 C0.0039181231,4.16109422 0.0267144757,4.05015198 0.0723071809,3.943769 C0.117899886,3.83738602 0.17869016,3.74620061 0.254678002,3.67021277 C0.330665843,3.59422492 0.420331497,3.53343465 0.523674962,3.48784195 C0.627018427,3.44224924 0.739480433,3.41945289 0.86106098,3.41945289 L3.42337101,3.41945289 L3.42337101,0.857142857 C3.42337101,0.741641337 3.44616736,0.630699088 3.49176007,0.524316109 C3.53735277,0.417933131 3.59814305,0.32674772 3.67413089,0.250759878 C3.75011873,0.174772036 3.83978438,0.113981763 3.94312785,0.0683890578 C4.04647131,0.0227963526 4.15893332,0 4.28051387,0 C4.51759593,0 4.71972359,0.0835866261 4.88689685,0.250759878 C5.0540701,0.417933131 5.13765672,0.62006079 5.13765672,0.857142857 L5.13765672,3.41945289 L7.69996676,3.41945289 Z" id="路径"></path>
                </g>
            </g>
        </g>
    </g>
</svg>